<?xml version="1.0" standalone="no"?>
<!DOCTYPE svg PUBLIC "-//W3C//DTD SVG 20010904//EN"
 "http://www.w3.org/TR/2001/REC-SVG-20010904/DTD/svg10.dtd">
<svg version="1.0" xmlns="http://www.w3.org/2000/svg"
 width="1024.000000pt" height="1024.000000pt" viewBox="0 0 1024.000000 1024.000000"
 preserveAspectRatio="xMidYMid meet">

<g transform="translate(0.000000,1024.000000) scale(0.100000,-0.100000)"
fill="#000000" stroke="none">
<path d="M4910 9040 c-531 -42 -1049 -184 -1507 -413 -250 -126 -377 -203
-583 -356 -515 -382 -951 -911 -1225 -1484 -189 -396 -292 -743 -351 -1182
-25 -184 -26 -633 -1 -835 61 -503 195 -938 419 -1370 305 -587 768 -1107
1308 -1467 213 -143 500 -290 770 -396 336 -132 708 -223 1050 -257 454 -45
948 -2 1385 122 738 208 1337 572 1848 1123 466 503 785 1084 947 1725 87 348
115 573 115 935 -1 281 -6 352 -46 595 -113 688 -453 1385 -948 1940 -137 154
-184 201 -322 324 -606 542 -1333 870 -2159 977 -176 22 -535 32 -700 19z
m455 -250 c782 -51 1523 -344 2117 -838 126 -105 408 -385 509 -507 880 -1058
1086 -2413 557 -3658 -189 -446 -423 -797 -762 -1144 -311 -318 -626 -552
-996 -737 -436 -218 -856 -338 -1317 -377 -182 -15 -608 -7 -753 15 -492 74
-816 174 -1215 375 -370 187 -636 378 -930 668 -676 665 -1057 1523 -1100
2478 -25 530 117 1161 374 1666 251 496 591 914 1021 1260 420 337 942 589
1453 703 234 53 504 91 692 99 161 7 198 7 350 -3z"/>
<path d="M5092 8390 c-248 -51 -338 -370 -154 -546 24 -24 60 -50 78 -59 l34
-16 0 -84 0 -85 -197 0 c-214 0 -256 -7 -304 -47 -45 -38 -59 -80 -59 -176 0
-69 -4 -92 -25 -133 -70 -138 -257 -335 -422 -444 -128 -84 -353 -196 -548
-273 -77 -30 -211 -83 -298 -117 -195 -77 -233 -104 -268 -190 -55 -138 -119
-406 -155 -655 -25 -166 -25 -515 0 -675 104 -687 469 -1259 985 -1545 l90
-50 1 -372 c0 -315 -2 -373 -14 -373 -21 0 -310 148 -381 195 -148 97 -274
197 -319 253 -18 23 -18 23 29 73 85 91 102 162 65 281 -30 97 -35 102 -91 83
-59 -20 -125 -76 -145 -124 -12 -26 -14 -55 -10 -105 l5 -69 -45 44 c-50 49
-108 138 -134 206 -15 41 -16 51 -4 91 19 62 17 119 -5 167 -25 53 -53 77
-135 116 -67 31 -69 32 -83 13 -21 -29 -53 -142 -53 -188 0 -22 9 -59 19 -81
18 -41 72 -95 94 -95 9 0 78 -123 96 -172 2 -5 -14 -1 -36 10 -99 51 -207 37
-284 -38 -27 -25 -49 -51 -49 -57 0 -20 92 -114 131 -133 78 -40 218 -13 233
44 6 24 11 26 59 26 l52 0 95 -99 c299 -312 617 -513 1075 -680 123 -44 325
-104 423 -126 l32 -7 0 974 1 973 35 -40 c20 -22 48 -55 62 -73 l25 -33 1
-911 1 -912 30 -8 c45 -12 237 -36 357 -43 l107 -7 3 763 c4 845 0 795 70 934
58 115 108 175 357 430 512 524 784 972 893 1475 19 89 22 134 22 295 0 177
-2 196 -27 276 -14 48 -38 113 -52 145 -14 33 -29 78 -32 101 l-5 41 53 -25
c30 -14 61 -28 69 -32 19 -10 84 -187 105 -286 22 -106 22 -347 1 -470 -84
-484 -344 -961 -781 -1440 -55 -60 -178 -190 -272 -288 -180 -186 -225 -249
-258 -357 -14 -48 -17 -147 -21 -807 l-4 -753 27 0 c57 0 262 20 366 36 l107
16 0 912 c0 835 1 914 17 936 28 41 101 118 107 112 3 -3 6 -439 6 -969 l0
-963 28 6 c371 84 701 217 996 401 165 102 267 184 443 355 l151 148 54 0 c50
0 54 -2 65 -29 22 -60 128 -82 214 -44 46 21 139 112 139 136 0 20 -58 75
-105 100 -55 28 -153 28 -217 0 l-48 -22 45 90 c25 49 49 89 55 89 22 0 80 64
96 106 22 58 14 144 -20 219 -29 64 -31 64 -117 18 -117 -63 -153 -151 -117
-287 11 -43 10 -48 -28 -121 -36 -71 -134 -195 -154 -195 -5 0 -4 15 1 33 12
42 2 116 -21 154 -37 61 -160 126 -187 100 -26 -26 -53 -119 -53 -182 0 -83
26 -141 89 -196 l46 -41 -55 -50 c-77 -69 -230 -183 -330 -246 -99 -63 -340
-183 -352 -176 -4 3 -8 174 -8 379 l0 375 53 26 c366 186 678 540 862 977 179
429 227 895 144 1397 -43 258 -122 538 -167 591 -29 35 -67 56 -188 102 -435
166 -477 184 -649 267 -192 93 -322 185 -460 324 -73 74 -142 154 -175 205
l-55 84 -5 106 c-6 115 -13 135 -60 175 -47 39 -90 46 -297 46 l-193 0 0 84 0
84 50 32 c102 66 155 164 155 286 -1 56 -6 82 -28 126 -64 131 -208 206 -345
178z m568 -970 c5 -8 10 -36 10 -62 l0 -48 -514 0 -514 0 -6 25 c-8 33 2 77
22 93 13 10 120 12 505 10 421 -3 489 -5 497 -18z m10 -327 l0 -68 -103 -66
c-106 -69 -333 -206 -384 -233 -30 -15 -31 -14 -200 83 -94 53 -210 124 -259
157 l-89 59 -3 54 c-2 29 -1 60 2 67 4 12 94 14 521 14 l515 0 0 -67z m-945
-310 c61 -38 154 -93 207 -123 54 -30 98 -57 98 -60 0 -3 -35 -32 -77 -65 -42
-33 -121 -95 -175 -137 l-97 -77 -89 122 c-155 212 -143 185 -141 334 0 71 3
141 6 155 l5 26 76 -53 c43 -29 127 -84 187 -122z m1125 10 l0 -168 -111 -147
c-60 -82 -113 -148 -118 -148 -4 0 -66 46 -137 101 -71 56 -149 115 -172 131
-36 25 -42 33 -30 43 7 7 85 55 173 108 88 53 210 130 270 171 61 42 113 76
118 76 4 0 7 -75 7 -167z m-1863 -266 c-3 -23 -21 -76 -40 -117 -48 -105 -64
-168 -77 -294 -45 -441 174 -1009 584 -1519 135 -168 211 -253 423 -471 106
-109 193 -201 193 -203 0 -11 -45 -103 -50 -103 -12 0 -490 490 -571 585 -323
377 -537 759 -648 1156 -45 162 -56 247 -55 434 1 190 11 249 70 405 l36 96
66 36 c37 19 69 36 71 37 2 0 1 -18 -2 -42z m466 -140 c12 -31 188 -257 200
-257 15 0 57 29 161 113 l70 56 12 -36 c15 -44 80 -139 100 -147 20 -8 18 -30
-10 -84 -14 -27 -31 -82 -40 -123 -21 -105 -86 -552 -86 -594 0 -33 11 -47
112 -147 62 -61 127 -122 145 -135 41 -31 35 -36 207 130 l130 123 -33 240
c-49 356 -65 438 -102 510 l-32 62 35 31 c20 17 48 59 64 95 16 36 31 66 34
66 3 0 46 -33 97 -74 100 -80 126 -94 148 -76 8 6 56 68 107 136 l93 125 8
-33 c14 -54 2 -433 -17 -513 -86 -374 -264 -645 -622 -947 l-84 -70 -85 72
c-135 115 -285 267 -358 365 -74 99 -174 291 -207 400 -52 171 -63 250 -68
493 -3 151 -1 232 6 232 5 0 12 -6 15 -13z m-1080 -394 c4 -153 13 -336 22
-408 26 -219 101 -573 250 -1177 102 -414 204 -918 186 -918 -12 0 -152 89
-205 131 -75 59 -211 195 -270 269 -199 249 -337 562 -406 918 -23 116 -38
342 -24 342 10 -1 20 -15 249 -355 173 -255 326 -505 381 -620 19 -38 32 -61
29 -50 -2 11 -41 169 -85 350 -211 860 -256 1147 -248 1590 l3 179 45 12 c25
7 50 12 56 13 7 1 13 -86 17 -276z m3645 256 l42 -12 0 -96 c-1 -195 -21 -518
-41 -655 -32 -221 -110 -588 -239 -1116 -27 -113 -52 -216 -55 -230 -3 -14 15
16 40 65 26 50 67 126 92 170 63 109 505 775 515 775 11 0 10 -144 -2 -237
-73 -541 -343 -1032 -725 -1316 -66 -49 -163 -107 -178 -107 -5 0 -2 22 29
180 49 252 87 421 159 710 140 566 227 979 254 1217 12 94 31 472 31 601 0 65
2 73 18 68 9 -2 36 -10 60 -17z m-1330 -1287 c-149 -144 -163 -156 -353 -309
-140 -113 -251 -219 -353 -337 l-42 -49 -30 28 c-17 16 -30 34 -30 40 0 20 98
153 166 225 36 38 111 107 167 152 217 178 327 277 457 409 l135 137 3 -89 3
-89 -123 -118z m-768 -123 c58 -51 105 -96 105 -99 0 -3 -18 -22 -40 -42 l-41
-36 -114 101 c-63 56 -163 149 -223 207 l-107 105 0 89 0 90 158 -160 c86 -88
204 -203 262 -255z m529 -377 l50 -59 -32 -31 c-18 -18 -35 -32 -38 -32 -2 0
-29 27 -58 61 l-53 60 33 29 c19 16 37 29 41 30 3 0 29 -26 57 -58z m-133
-228 c-3 -9 -41 -56 -84 -104 l-77 -88 -57 56 c-32 31 -58 64 -58 73 0 9 37
57 83 107 l82 90 59 -59 c40 -40 56 -64 52 -75z"/>
<path d="M4475 8269 c-52 -30 -61 -89 -19 -134 22 -23 31 -27 62 -22 45 8 72
38 72 81 -1 59 -67 102 -115 75z"/>
<path d="M5729 8251 c-34 -34 -37 -68 -9 -104 60 -76 170 -6 134 88 -7 18 -55
45 -79 45 -9 0 -30 -13 -46 -29z"/>
<path d="M4172 8184 c-34 -23 -31 -95 4 -123 36 -28 60 -26 95 8 34 35 37 68
8 105 -24 30 -72 35 -107 10z"/>
<path d="M6010 8180 c-29 -29 -27 -84 5 -115 13 -14 29 -25 34 -25 21 0 65 22
77 38 18 23 17 73 -2 100 -20 29 -85 31 -114 2z"/>
<path d="M3926 8098 c-22 -30 -20 -91 2 -111 50 -45 132 -9 132 58 0 66 -98
105 -134 53z"/>
<path d="M6267 8108 c-58 -45 -31 -148 40 -148 31 0 72 39 79 75 12 63 -68
111 -119 73z"/>
<path d="M3712 7997 c-63 -67 16 -167 94 -118 36 22 46 57 29 99 -21 48 -86
58 -123 19z"/>
<path d="M6485 7995 c-50 -49 -18 -135 49 -135 68 0 103 97 50 139 -35 28 -69
26 -99 -4z"/>
<path d="M3490 7870 c-45 -45 -8 -140 55 -140 38 0 75 42 75 84 0 64 -85 101
-130 56z"/>
<path d="M6722 7883 c-7 -3 -19 -18 -28 -35 -28 -55 6 -118 64 -118 32 0 82
52 82 85 0 51 -66 89 -118 68z"/>
<path d="M3310 7733 c-40 -51 -3 -127 60 -125 57 1 88 44 70 98 -20 60 -92 75
-130 27z"/>
<path d="M6880 7740 c-31 -31 -27 -93 7 -120 33 -26 68 -20 101 16 28 31 28
64 1 98 -26 33 -79 36 -109 6z"/>
<path d="M2950 7596 c-141 -105 -207 -243 -182 -380 l12 -60 -58 -65 c-32 -36
-67 -78 -79 -93 l-20 -27 -5 82 c-4 61 -13 98 -32 140 -26 55 -80 112 -96 102
-4 -3 -20 -35 -36 -72 -21 -54 -27 -85 -28 -148 -1 -70 3 -88 30 -146 17 -36
41 -75 53 -86 l21 -20 -20 -18 c-20 -18 -20 -18 -20 7 0 41 -68 165 -106 195
-43 32 -51 26 -70 -54 -26 -110 -11 -210 42 -289 25 -36 25 -39 10 -64 -9 -14
-38 -60 -63 -103 l-46 -78 -19 72 c-10 40 -29 90 -42 113 -32 54 -96 117 -115
114 -23 -5 -42 -84 -43 -180 0 -77 3 -95 30 -152 17 -36 51 -87 76 -114 44
-47 46 -50 34 -83 l-11 -33 -13 36 c-28 80 -135 203 -172 196 -24 -5 -44 -89
-38 -161 6 -78 45 -155 106 -210 l50 -45 -20 -98 c-10 -55 -21 -112 -23 -129
-3 -26 -4 -28 -12 -10 -19 46 -78 115 -128 149 -60 41 -145 72 -160 57 -16
-16 18 -175 54 -251 34 -75 101 -147 163 -177 l36 -17 0 -127 0 -127 -57 57
c-92 91 -271 155 -288 102 -6 -21 42 -151 79 -209 49 -78 151 -153 232 -170
l37 -8 23 -134 c29 -164 29 -172 7 -140 -24 36 -33 44 -80 73 -95 60 -242 85
-267 44 -9 -14 -4 -30 24 -82 86 -160 185 -245 314 -266 l73 -12 24 -71 c43
-132 97 -267 114 -287 24 -26 58 -24 92 5 l28 24 -16 44 c-9 24 -35 91 -58
151 -62 160 -62 161 -10 185 96 42 177 159 201 290 19 103 3 112 -107 58 -85
-41 -146 -92 -171 -143 l-18 -38 -17 90 c-10 50 -21 115 -24 146 l-7 57 55 17
c89 28 158 90 205 184 42 83 62 165 45 182 -16 16 -166 -44 -236 -95 -16 -11
-40 -37 -53 -56 l-24 -35 0 136 0 135 62 12 c147 27 278 168 278 299 0 41 -6
41 -109 3 -106 -39 -132 -53 -171 -91 l-31 -32 6 39 c4 21 16 81 26 133 11 51
19 95 19 97 0 2 33 4 73 4 50 0 93 8 141 25 77 27 146 69 146 89 0 40 -95 77
-203 78 -43 0 -76 2 -75 4 2 1 37 10 78 18 99 21 188 66 251 127 40 39 50 55
47 76 l-3 28 -80 -3 c-98 -3 -182 -19 -214 -39 -23 -15 -24 -14 -17 3 4 11 31
62 61 115 l55 96 52 -13 c29 -8 75 -14 103 -14 98 0 246 54 253 92 7 36 -127
96 -223 99 -30 1 -55 3 -55 4 0 1 8 11 18 21 15 17 32 19 132 19 109 1 118 2
175 32 33 17 72 44 88 60 26 28 27 30 10 45 -25 22 -110 38 -198 38 -41 0 -75
3 -75 6 0 4 26 37 57 73 31 36 57 67 58 67 0 1 26 -3 58 -8 121 -21 260 28
368 130 l64 61 -40 18 c-31 14 -65 18 -150 18 -104 -1 -124 -4 -208 -40 -14
-6 -13 0 8 36 36 63 65 163 65 224 0 55 -13 105 -27 105 -5 0 -28 -16 -53 -34z"/>
<path d="M7290 7604 c-23 -60 0 -196 47 -287 16 -28 29 -55 31 -59 2 -4 -23 5
-55 20 -52 24 -69 27 -168 27 -112 0 -175 -14 -175 -40 0 -19 105 -112 163
-145 70 -40 170 -57 249 -42 72 13 70 15 143 -79 l46 -59 -79 0 c-91 0 -187
-17 -203 -36 -17 -21 -2 -47 48 -81 78 -53 131 -66 244 -61 84 4 101 2 114
-12 19 -21 19 -31 2 -24 -41 16 -237 -45 -269 -83 -32 -39 126 -113 241 -113
31 0 81 6 111 14 30 8 56 13 57 12 8 -7 123 -212 123 -218 0 -4 -19 2 -43 12
-58 26 -230 46 -263 31 -36 -16 -30 -36 28 -97 62 -66 142 -107 258 -133 l85
-19 -77 0 c-120 0 -221 -43 -204 -87 3 -9 45 -34 92 -57 77 -37 97 -42 176
-46 l88 -4 11 -40 c13 -50 39 -185 39 -204 0 -9 -15 -2 -44 20 -54 41 -183 96
-234 99 -37 2 -37 2 -36 -35 2 -52 49 -144 101 -196 50 -50 128 -89 195 -98
l46 -6 7 -125 c4 -68 5 -126 2 -129 -3 -3 -23 14 -46 38 -46 51 -107 86 -204
119 -58 19 -70 20 -78 8 -13 -21 -2 -65 40 -154 55 -118 141 -194 246 -221 26
-6 26 -8 20 -58 -3 -28 -13 -91 -22 -141 -16 -88 -16 -89 -32 -65 -38 59 -98
112 -164 145 -84 42 -124 46 -133 11 -7 -31 30 -169 61 -222 31 -53 101 -116
154 -140 51 -22 52 -11 -26 -217 -47 -126 -54 -152 -45 -172 14 -30 55 -42 87
-25 27 14 44 52 105 230 24 69 47 130 52 136 4 6 25 11 46 12 122 5 247 101
326 252 47 88 45 114 -7 118 -82 7 -221 -52 -282 -119 -38 -43 -38 -43 -32
-13 3 17 13 82 22 145 9 63 20 117 23 120 4 3 27 11 52 18 126 35 220 141 275
309 23 71 16 86 -36 78 -76 -12 -183 -71 -238 -132 l-51 -56 0 136 0 136 40
20 c55 28 116 85 146 135 29 50 64 182 64 242 0 38 -3 43 -22 43 -71 0 -202
-99 -242 -183 -24 -49 -25 -50 -26 -22 0 33 -37 212 -47 227 -3 6 19 32 49 58
64 57 98 125 105 209 5 71 -15 155 -39 159 -37 7 -146 -128 -173 -213 -6 -18
-8 -16 -20 13 -14 32 -13 34 25 73 51 52 98 147 110 222 9 56 -6 197 -25 227
-12 20 -34 9 -75 -37 -54 -61 -85 -123 -101 -200 l-13 -61 -62 106 c-60 104
-62 108 -46 132 49 76 57 104 57 200 0 102 -17 180 -39 180 -27 0 -101 -96
-126 -163 -21 -59 -26 -65 -39 -52 -13 13 -12 17 6 37 31 34 62 102 73 157 17
91 -23 261 -66 278 -12 5 -26 -3 -45 -27 -47 -56 -70 -117 -77 -203 l-7 -80
-73 90 -74 89 -2 109 c-2 128 -18 172 -94 256 -40 44 -121 109 -137 109 -3 0
-10 -12 -15 -26z"/>
<path d="M3780 7363 c-60 -22 -81 -102 -38 -143 53 -49 138 -10 138 63 0 35
-27 77 -49 77 -5 0 -15 2 -23 4 -7 3 -20 2 -28 -1z"/>
<path d="M6462 7353 c-22 -9 -44 -63 -37 -92 11 -42 34 -61 77 -61 75 0 113
75 67 134 -16 20 -29 26 -57 25 -20 0 -43 -3 -50 -6z"/>
</g>
</svg>
